<svg width="440" height="325" viewBox="0 0 440 325" fill="none" xmlns="http://www.w3.org/2000/svg">
<g filter="url(#filter0_d_10_90)">
<rect x="52" y="47" width="336" height="238" rx="13" fill="white"/>
</g>
<path d="M375 47H65C57.8203 47 52 52.8203 52 60V272C52 279.18 57.8203 285 65 285H375C382.18 285 388 279.18 388 272V60C388 52.8203 382.18 47 375 47Z" fill="white"/>
<path d="M65 47H375C378.448 47 381.754 48.3696 384.192 50.8076C386.63 53.2456 388 56.5522 388 60V82H52V60C52 56.5522 53.3696 53.2456 55.8076 50.8076C58.2456 48.3696 61.5522 47 65 47Z" fill="#F0F1FB"/>
<path d="M128 91H81C74.9249 91 70 95.9249 70 102V147C70 153.075 74.9249 158 81 158H128C134.075 158 139 153.075 139 147V102C139 95.9249 134.075 91 128 91Z" fill="white"/>
<path d="M81 105H128C130.387 105 132.676 105.948 134.364 107.636C136.052 109.324 137 111.613 137 114V127H72V114C72 111.613 72.9482 109.324 74.636 107.636C76.3239 105.948 78.6131 105 81 105Z" fill="url(#paint0_linear_10_90)"/>
<path d="M90 99C90 97.3431 88.6569 96 87 96C85.3431 96 84 97.3431 84 99V111C84 112.657 85.3431 114 87 114C88.6569 114 90 112.657 90 111V99Z" fill="#6577F2"/>
<path d="M124 99C124 97.3431 122.657 96 121 96C119.343 96 118 97.3431 118 99V111C118 112.657 119.343 114 121 114C122.657 114 124 112.657 124 111V99Z" fill="#6577F2"/>
<path d="M91 134H85C83.3431 134 82 135.343 82 137V141C82 142.657 83.3431 144 85 144H91C92.6569 144 94 142.657 94 141V137C94 135.343 92.6569 134 91 134Z" fill="#E4E6F2"/>
<path d="M108 134H102C100.343 134 99 135.343 99 137V141C99 142.657 100.343 144 102 144H108C109.657 144 111 142.657 111 141V137C111 135.343 109.657 134 108 134Z" fill="#E4E6F2"/>
<path d="M125 134H119C117.343 134 116 135.343 116 137V141C116 142.657 117.343 144 119 144H125C126.657 144 128 142.657 128 141V137C128 135.343 126.657 134 125 134Z" fill="#E4E6F2"/>
<path d="M180 141C188.284 141 195 134.284 195 126C195 117.716 188.284 111 180 111C171.716 111 165 117.716 165 126C165 134.284 171.716 141 180 141Z" fill="#EFF0F6"/>
<path d="M305 114H209C206.791 114 205 115.791 205 118C205 120.209 206.791 122 209 122H305C307.209 122 309 120.209 309 118C309 115.791 307.209 114 305 114Z" fill="#E1E3EB"/>
<path d="M260.5 131H208.5C206.567 131 205 132.567 205 134.5C205 136.433 206.567 138 208.5 138H260.5C262.433 138 264 136.433 264 134.5C264 132.567 262.433 131 260.5 131Z" fill="#E9EAF0"/>
<path d="M180 203C188.284 203 195 196.284 195 188C195 179.716 188.284 173 180 173C171.716 173 165 179.716 165 188C165 196.284 171.716 203 180 203Z" fill="#EFF0F6"/>
<path d="M305 176H209C206.791 176 205 177.791 205 180C205 182.209 206.791 184 209 184H305C307.209 184 309 182.209 309 180C309 177.791 307.209 176 305 176Z" fill="#E1E3EB"/>
<path d="M260.5 193H208.5C206.567 193 205 194.567 205 196.5C205 198.433 206.567 200 208.5 200H260.5C262.433 200 264 198.433 264 196.5C264 194.567 262.433 193 260.5 193Z" fill="#E9EAF0"/>
<path d="M180 265C188.284 265 195 258.284 195 250C195 241.716 188.284 235 180 235C171.716 235 165 241.716 165 250C165 258.284 171.716 265 180 265Z" fill="#EFF0F6"/>
<path d="M305 238H209C206.791 238 205 239.791 205 242C205 244.209 206.791 246 209 246H305C307.209 246 309 244.209 309 242C309 239.791 307.209 238 305 238Z" fill="#E1E3EB"/>
<path d="M260.5 255H208.5C206.567 255 205 256.567 205 258.5C205 260.433 206.567 262 208.5 262H260.5C262.433 262 264 260.433 264 258.5C264 256.567 262.433 255 260.5 255Z" fill="#E9EAF0"/>
<path d="M344 141C352.284 141 359 134.284 359 126C359 117.716 352.284 111 344 111C335.716 111 329 117.716 329 126C329 134.284 335.716 141 344 141Z" fill="#91DFC7"/>
<path d="M344 203C352.284 203 359 196.284 359 188C359 179.716 352.284 173 344 173C335.716 173 329 179.716 329 188C329 196.284 335.716 203 344 203Z" fill="#91DFC7"/>
<path d="M344 265C352.284 265 359 258.284 359 250C359 241.716 352.284 235 344 235C335.716 235 329 241.716 329 250C329 258.284 335.716 265 344 265Z" fill="#91DFC7"/>
<path d="M338 126L343 131L351 121" stroke="white" stroke-width="3" stroke-linecap="round" stroke-linejoin="round"/>
<path d="M338 188L343 193L351 183" stroke="white" stroke-width="3" stroke-linecap="round" stroke-linejoin="round"/>
<path d="M338 250L343 255L351 245" stroke="white" stroke-width="3" stroke-linecap="round" stroke-linejoin="round"/>
<defs>
<filter id="filter0_d_10_90" x="27" y="37" width="386" height="288" filterUnits="userSpaceOnUse" color-interpolation-filters="sRGB">
<feFlood flood-opacity="0" result="BackgroundImageFix"/>
<feColorMatrix in="SourceAlpha" type="matrix" values="0 0 0 0 0 0 0 0 0 0 0 0 0 0 0 0 0 0 127 0" result="hardAlpha"/>
<feOffset dy="15"/>
<feGaussianBlur stdDeviation="12.5"/>
<feColorMatrix type="matrix" values="0 0 0 0 0.3 0 0 0 0 0.32 0 0 0 0 0.7 0 0 0 0.22 0"/>
<feBlend mode="normal" in2="BackgroundImageFix" result="effect1_dropShadow_10_90"/>
<feBlend mode="normal" in="SourceGraphic" in2="effect1_dropShadow_10_90" result="shape"/>
</filter>
<linearGradient id="paint0_linear_10_90" x1="72" y1="105" x2="85.3616" y2="144.478" gradientUnits="userSpaceOnUse">
<stop stop-color="#7564FF"/>
<stop offset="1" stop-color="#314BEA"/>
</linearGradient>
</defs>
</svg>
