<svg width="440" height="325" viewBox="0 0 440 325" fill="none" xmlns="http://www.w3.org/2000/svg">
<g filter="url(#filter0_d_10_2)">
<rect x="48" y="56" width="305" height="230" rx="13" fill="white"/>
</g>
<path d="M340 56H61C53.8203 56 48 61.8203 48 69V273C48 280.18 53.8203 286 61 286H340C347.18 286 353 280.18 353 273V69C353 61.8203 347.18 56 340 56Z" fill="white"/>
<path d="M61 56H340C343.448 56 346.754 57.3696 349.192 59.8076C351.63 62.2456 353 65.5522 353 69V89H48V69C48 65.5522 49.3696 62.2456 51.8076 59.8076C54.2456 57.3696 57.5522 56 61 56Z" fill="#E3E5FF"/>
<path d="M68 77C70.7614 77 73 74.7614 73 72C73 69.2386 70.7614 67 68 67C65.2386 67 63 69.2386 63 72C63 74.7614 65.2386 77 68 77Z" fill="#7869F4"/>
<path d="M83 77C85.7614 77 88 74.7614 88 72C88 69.2386 85.7614 67 83 67C80.2386 67 78 69.2386 78 72C78 74.7614 80.2386 77 83 77Z" fill="#5E72ED"/>
<path d="M98 77C100.761 77 103 74.7614 103 72C103 69.2386 100.761 67 98 67C95.2386 67 93 69.2386 93 72C93 74.7614 95.2386 77 98 77Z" fill="#79CFC2"/>
<path d="M113 89H48V286H113V89Z" fill="#F7F8FC"/>
<path d="M81 134C85.4183 134 89 130.418 89 126C89 121.582 85.4183 118 81 118C76.5817 118 73 121.582 73 126C73 130.418 76.5817 134 81 134Z" fill="#E9EBF3"/>
<path d="M89.5 157H73.5C71.567 157 70 158.567 70 160.5C70 162.433 71.567 164 73.5 164H89.5C91.433 164 93 162.433 93 160.5C93 158.567 91.433 157 89.5 157Z" fill="#E9EBF3"/>
<path d="M94.5 190H73.5C71.567 190 70 191.567 70 193.5C70 195.433 71.567 197 73.5 197H94.5C96.433 197 98 195.433 98 193.5C98 191.567 96.433 190 94.5 190Z" fill="#E9EBF3"/>
<path d="M91.5 223H73.5C71.567 223 70 224.567 70 226.5C70 228.433 71.567 230 73.5 230H91.5C93.433 230 95 228.433 95 226.5C95 224.567 93.433 223 91.5 223Z" fill="#E9EBF3"/>
<path d="M93.5 256H73.5C71.567 256 70 257.567 70 259.5C70 261.433 71.567 263 73.5 263H93.5C95.433 263 97 261.433 97 259.5C97 257.567 95.433 256 93.5 256Z" fill="#E9EBF3"/>
<path d="M148 143C155.18 143 161 137.18 161 130C161 122.82 155.18 117 148 117C140.82 117 135 122.82 135 130C135 137.18 140.82 143 148 143Z" fill="#ECEEF5"/>
<path d="M148 182C155.18 182 161 176.18 161 169C161 161.82 155.18 156 148 156C140.82 156 135 161.82 135 169C135 176.18 140.82 182 148 182Z" fill="#ECEEF5"/>
<path d="M148 221C155.18 221 161 215.18 161 208C161 200.82 155.18 195 148 195C140.82 195 135 200.82 135 208C135 215.18 140.82 221 148 221Z" fill="#ECEEF5"/>
<path d="M148 260C155.18 260 161 254.18 161 247C161 239.82 155.18 234 148 234C140.82 234 135 239.82 135 247C135 254.18 140.82 260 148 260Z" fill="#ECEEF5"/>
<path d="M282 121H173C170.791 121 169 122.791 169 125C169 127.209 170.791 129 173 129H282C284.209 129 286 127.209 286 125C286 122.791 284.209 121 282 121Z" fill="#E1E3EB"/>
<path d="M230.5 136H172.5C170.567 136 169 137.567 169 139.5C169 141.433 170.567 143 172.5 143H230.5C232.433 143 234 141.433 234 139.5C234 137.567 232.433 136 230.5 136Z" fill="#E1E3EB"/>
<path d="M282 160H173C170.791 160 169 161.791 169 164C169 166.209 170.791 168 173 168H282C284.209 168 286 166.209 286 164C286 161.791 284.209 160 282 160Z" fill="#E1E3EB"/>
<path d="M234.5 175H172.5C170.567 175 169 176.567 169 178.5C169 180.433 170.567 182 172.5 182H234.5C236.433 182 238 180.433 238 178.5C238 176.567 236.433 175 234.5 175Z" fill="#E1E3EB"/>
<path d="M282 199H173C170.791 199 169 200.791 169 203C169 205.209 170.791 207 173 207H282C284.209 207 286 205.209 286 203C286 200.791 284.209 199 282 199Z" fill="#E1E3EB"/>
<path d="M238.5 214H172.5C170.567 214 169 215.567 169 217.5C169 219.433 170.567 221 172.5 221H238.5C240.433 221 242 219.433 242 217.5C242 215.567 240.433 214 238.5 214Z" fill="#E1E3EB"/>
<path d="M282 238H173C170.791 238 169 239.791 169 242C169 244.209 170.791 246 173 246H282C284.209 246 286 244.209 286 242C286 239.791 284.209 238 282 238Z" fill="#E1E3EB"/>
<path d="M227.5 253H172.5C170.567 253 169 254.567 169 256.5C169 258.433 170.567 260 172.5 260H227.5C229.433 260 231 258.433 231 256.5C231 254.567 229.433 253 227.5 253Z" fill="#E1E3EB"/>
<path d="M324 267C337.255 267 348 256.255 348 243C348 229.745 337.255 219 324 219C310.745 219 300 229.745 300 243C300 256.255 310.745 267 324 267Z" fill="url(#paint0_linear_10_2)"/>
<path d="M324 232V254V232ZM313 243H335H313Z" fill="black"/>
<path d="M324 232V254M313 243H335" stroke="white" stroke-width="4" stroke-linecap="round"/>
<defs>
<filter id="filter0_d_10_2" x="24" y="47" width="353" height="278" filterUnits="userSpaceOnUse" color-interpolation-filters="sRGB">
<feFlood flood-opacity="0" result="BackgroundImageFix"/>
<feColorMatrix in="SourceAlpha" type="matrix" values="0 0 0 0 0 0 0 0 0 0 0 0 0 0 0 0 0 0 127 0" result="hardAlpha"/>
<feOffset dy="15"/>
<feGaussianBlur stdDeviation="12"/>
<feColorMatrix type="matrix" values="0 0 0 0 0.3 0 0 0 0 0.32 0 0 0 0 0.7 0 0 0 0.22 0"/>
<feBlend mode="normal" in2="BackgroundImageFix" result="effect1_dropShadow_10_2"/>
<feBlend mode="normal" in="SourceGraphic" in2="effect1_dropShadow_10_2" result="shape"/>
</filter>
<linearGradient id="paint0_linear_10_2" x1="300" y1="219" x2="348" y2="267" gradientUnits="userSpaceOnUse">
<stop stop-color="#7564FF"/>
<stop offset="1" stop-color="#314BEA"/>
</linearGradient>
</defs>
</svg>
