<svg width="440" height="333" viewBox="0 0 440 333" fill="none" xmlns="http://www.w3.org/2000/svg">
<g filter="url(#filter0_d_10_34)">
<rect x="300" y="102" width="70" height="83" rx="11" fill="white"/>
</g>
<g filter="url(#filter1_d_10_34)">
<rect x="185" y="39" width="73" height="93" rx="11" fill="white"/>
</g>
<g filter="url(#filter2_d_10_34)">
<rect x="78" y="87" width="68" height="82" rx="11" fill="white"/>
</g>
<g filter="url(#filter3_d_10_34)">
<rect x="67" y="96" width="306" height="196" rx="15" fill="white"/>
</g>
<path d="M358 96H82C73.7157 96 67 102.716 67 111V277C67 285.284 73.7157 292 82 292H358C366.284 292 373 285.284 373 277V111C373 102.716 366.284 96 358 96Z" fill="white"/>
<path d="M93 132H347V250C347 252.652 345.946 255.196 344.071 257.071C342.196 258.946 339.652 260 337 260H103C100.348 260 97.8043 258.946 95.9289 257.071C94.0536 255.196 93 252.652 93 250V132Z" fill="url(#paint0_linear_10_34)"/>
<path d="M93 132H347L326 167H114L93 132Z" fill="#F5F6FF"/>
<path d="M122.467 80.9263L77.8333 92.0547C71.9386 93.5244 68.3515 99.4944 69.8212 105.389L84.3365 163.607C85.8062 169.501 91.7762 173.089 97.6709 171.619L142.304 160.491C148.199 159.021 151.786 153.051 150.317 147.156L135.801 88.9384C134.332 83.0437 128.362 79.4566 122.467 80.9263Z" fill="white"/>
<path d="M86.3136 105.4L112.512 98.8676L128.27 108.337L137.222 144.237L98.4097 153.914L86.3136 105.4Z" fill="#F02222"/>
<path d="M112.512 98.8676L115.657 111.481L128.27 108.336" fill="#FF7373"/>
<path d="M104.968 138.881C111.281 127.001 111.286 118.755 109.351 110.992C113.469 119.241 117.831 124.337 127.532 126.041C117.587 127.49 110.308 131.366 104.968 138.881Z" stroke="white" stroke-width="3" stroke-linecap="round"/>
<path d="M247 39H196C189.925 39 185 43.9249 185 50V121C185 127.075 189.925 132 196 132H247C253.075 132 258 127.075 258 121V50C258 43.9249 253.075 39 247 39Z" fill="white"/>
<path d="M205 56H235L247 68V112H205V56Z" fill="#3783EF"/>
<path d="M235 56V68H247" fill="#87B6FA"/>
<path d="M219.446 95L214.452 77.5455H218.483L221.372 89.6733H221.517L224.705 77.5455H228.156L231.335 89.6989H231.489L234.378 77.5455H238.409L233.415 95H229.818L226.494 83.5881H226.358L223.043 95H219.446Z" fill="white"/>
<path d="M369.243 110.195L322.879 97.7712C317.011 96.1988 310.979 99.6813 309.407 105.549L293.619 164.471C292.046 170.339 295.529 176.371 301.397 177.943L347.761 190.366C353.629 191.939 359.661 188.456 361.233 182.588L377.021 123.667C378.594 117.799 375.111 111.767 369.243 110.195Z" fill="white"/>
<path d="M325.24 116.004L360.014 125.321L347.59 171.686L312.817 162.368L325.24 116.004Z" fill="#62768C"/>
<path d="M329.603 130.631L348.922 135.808L343.745 155.126L324.427 149.95L329.603 130.631Z" stroke="white" stroke-width="3"/>
<path d="M330.948 137.203L344.471 140.827L330.948 137.203ZM329.136 143.965L339.761 146.812L329.136 143.965Z" fill="black"/>
<path d="M330.948 137.203L344.471 140.827M329.136 143.965L339.761 146.812" stroke="white" stroke-width="2"/>
<path d="M220 192C206 192 195 202 194 215C184 216 177 224 177 234C177 245 186 254 197 254H248C259 254 268 245 268 234C268 224 260 215 250 214C248 201 236 192 220 192Z" fill="#D7DDFB" stroke="#A6AEF3" stroke-width="3"/>
<path d="M221 241V214M231 224L221 214L211 224" stroke="#6374EC" stroke-width="5" stroke-linecap="round" stroke-linejoin="round"/>
<defs>
<filter id="filter0_d_10_34" x="285" y="96" width="100" height="113" filterUnits="userSpaceOnUse" color-interpolation-filters="sRGB">
<feFlood flood-opacity="0" result="BackgroundImageFix"/>
<feColorMatrix in="SourceAlpha" type="matrix" values="0 0 0 0 0 0 0 0 0 0 0 0 0 0 0 0 0 0 127 0" result="hardAlpha"/>
<feOffset dy="9"/>
<feGaussianBlur stdDeviation="7.5"/>
<feColorMatrix type="matrix" values="0 0 0 0 0.3 0 0 0 0 0.32 0 0 0 0 0.7 0 0 0 0.24 0"/>
<feBlend mode="normal" in2="BackgroundImageFix" result="effect1_dropShadow_10_34"/>
<feBlend mode="normal" in="SourceGraphic" in2="effect1_dropShadow_10_34" result="shape"/>
</filter>
<filter id="filter1_d_10_34" x="169" y="33" width="105" height="125" filterUnits="userSpaceOnUse" color-interpolation-filters="sRGB">
<feFlood flood-opacity="0" result="BackgroundImageFix"/>
<feColorMatrix in="SourceAlpha" type="matrix" values="0 0 0 0 0 0 0 0 0 0 0 0 0 0 0 0 0 0 127 0" result="hardAlpha"/>
<feOffset dy="10"/>
<feGaussianBlur stdDeviation="8"/>
<feColorMatrix type="matrix" values="0 0 0 0 0.3 0 0 0 0 0.32 0 0 0 0 0.7 0 0 0 0.24 0"/>
<feBlend mode="normal" in2="BackgroundImageFix" result="effect1_dropShadow_10_34"/>
<feBlend mode="normal" in="SourceGraphic" in2="effect1_dropShadow_10_34" result="shape"/>
</filter>
<filter id="filter2_d_10_34" x="63" y="81" width="98" height="112" filterUnits="userSpaceOnUse" color-interpolation-filters="sRGB">
<feFlood flood-opacity="0" result="BackgroundImageFix"/>
<feColorMatrix in="SourceAlpha" type="matrix" values="0 0 0 0 0 0 0 0 0 0 0 0 0 0 0 0 0 0 127 0" result="hardAlpha"/>
<feOffset dy="9"/>
<feGaussianBlur stdDeviation="7.5"/>
<feColorMatrix type="matrix" values="0 0 0 0 0.3 0 0 0 0 0.32 0 0 0 0 0.7 0 0 0 0.24 0"/>
<feBlend mode="normal" in2="BackgroundImageFix" result="effect1_dropShadow_10_34"/>
<feBlend mode="normal" in="SourceGraphic" in2="effect1_dropShadow_10_34" result="shape"/>
</filter>
<filter id="filter3_d_10_34" x="42" y="87" width="356" height="246" filterUnits="userSpaceOnUse" color-interpolation-filters="sRGB">
<feFlood flood-opacity="0" result="BackgroundImageFix"/>
<feColorMatrix in="SourceAlpha" type="matrix" values="0 0 0 0 0 0 0 0 0 0 0 0 0 0 0 0 0 0 127 0" result="hardAlpha"/>
<feOffset dy="16"/>
<feGaussianBlur stdDeviation="12.5"/>
<feColorMatrix type="matrix" values="0 0 0 0 0.3 0 0 0 0 0.32 0 0 0 0 0.7 0 0 0 0.23 0"/>
<feBlend mode="normal" in2="BackgroundImageFix" result="effect1_dropShadow_10_34"/>
<feBlend mode="normal" in="SourceGraphic" in2="effect1_dropShadow_10_34" result="shape"/>
</filter>
<linearGradient id="paint0_linear_10_34" x1="93" y1="132" x2="195.881" y2="336.154" gradientUnits="userSpaceOnUse">
<stop stop-color="#F1F3FF"/>
<stop offset="1" stop-color="#E3E7FF"/>
</linearGradient>
</defs>
</svg>
