<svg viewBox="0 0 144.876 35" xmlns="http://www.w3.org/2000/svg" xmlns:xlink="http://www.w3.org/1999/xlink" width="144.875977" height="35.000000" fill="none" customFrame="#000000">
	<defs>
		<clipPath id="clipPath_0">
			<rect width="24.212357" height="24.151096" x="5.097168" y="5.084473" fill="rgb(255,255,255)" />
		</clipPath>
	</defs>
	<g id="组合 157">
		<g id="组合 91">
			<rect id="矩形 151" width="34.407032" height="34.319981" x="0.000000" y="0.000000" rx="6.864098" fill="rgb(1,1,1)" />
			<g id="神经 1" clip-path="url(#clipPath_0)" customFrame="url(#clipPath_0)">
				<rect id="神经 1" width="24.212357" height="24.151096" x="5.097168" y="5.084473" />
				<path id="矢量 333" d="M24.7699 20.1789C24.2448 20.1789 23.7575 20.3253 23.327 20.5608L20.0485 18.1539C20.1582 17.8415 20.23 17.5102 20.23 17.16C20.23 17.0543 20.2096 16.9547 20.199 16.8513L23.2271 15.0385C23.434 15.2328 23.6759 15.3864 23.94 15.4911C24.2041 15.5959 24.4856 15.65 24.7699 15.6505C25.2188 15.6505 25.6577 15.5177 26.031 15.269C26.4042 15.0202 26.6952 14.6665 26.867 14.2528C27.0388 13.8391 27.0837 13.3839 26.9962 12.9447C26.9086 12.5054 26.6924 12.102 26.3749 11.7854C26.0575 11.4687 25.653 11.2531 25.2127 11.1657C24.7724 11.0783 24.316 11.1232 23.9012 11.2946C23.4864 11.4659 23.1319 11.7561 22.8825 12.1285C22.6331 12.5008 22.5 12.9386 22.5 13.3864C22.5 13.492 22.5174 13.5932 22.531 13.695L19.6618 15.412C19.457 15.1267 19.2038 14.8792 18.9137 14.6808C18.6235 14.4823 18.3008 14.336 17.9601 14.2483L17.9601 12.5245C19.2616 12.1871 20.23 11.015 20.23 9.61276C20.23 7.94784 18.8726 6.59387 17.2035 6.59387C15.5344 6.59387 14.177 7.94784 14.177 9.61276C14.177 11.015 15.1455 12.1871 16.4469 12.5245L16.4469 14.2483C16.081 14.3426 15.7361 14.5046 15.4301 14.7257C15.124 14.9467 14.8622 15.2231 14.6582 15.5403L11.8548 13.8626C11.9536 13.4048 11.9076 12.9276 11.7231 12.4969C11.5387 12.0663 11.2249 11.7032 10.825 11.4579C10.4251 11.2125 9.95877 11.0968 9.49022 11.1269C9.02168 11.1569 8.57399 11.3311 8.20884 11.6255C7.84369 11.9199 7.57904 12.3199 7.45136 12.7706C7.32367 13.2213 7.33923 13.7004 7.49589 14.1418C7.65255 14.5833 7.9426 14.9655 8.32609 15.2357C8.70958 15.5059 9.16763 15.6508 9.63714 15.6505C9.8934 15.6496 10.1476 15.605 10.3888 15.5186C10.63 15.4322 10.8545 15.3053 11.0528 15.1434L14.1906 17.0219C14.1891 17.0687 14.177 17.1124 14.177 17.16C14.177 17.5109 14.2488 17.8422 14.3593 18.1555L11.1171 20.5811C10.6674 20.3206 10.1572 20.182 9.63714 20.1789C7.968 20.1789 6.6106 21.5328 6.6106 23.1978C6.6106 24.8627 7.968 26.2166 9.63714 26.2166C11.3063 26.2166 12.6637 24.8627 12.6637 23.1978C12.6637 22.6272 12.495 22.0996 12.2188 21.6438L15.2052 19.4098C15.5609 19.7252 15.9864 19.952 16.4469 20.0717L16.4469 23.3366C16.0052 23.4912 15.6225 23.7786 15.3515 24.1593C15.0804 24.5399 14.9344 24.995 14.9336 25.4619C14.9336 25.9401 15.0853 26.4059 15.3671 26.7928C15.6489 27.1796 16.0462 27.4675 16.5021 27.6153C16.958 27.763 17.449 27.763 17.9049 27.6153C18.3608 27.4675 18.7581 27.1796 19.0399 26.7928C19.3217 26.4059 19.4734 25.9401 19.4734 25.4619C19.4726 24.995 19.3266 24.5399 19.0555 24.1593C18.7845 23.7786 18.4018 23.4912 17.9601 23.3366L17.9601 20.0717C18.4213 19.9522 18.8474 19.7251 19.2033 19.409L22.2056 21.6128C21.9053 22.0873 21.7451 22.6366 21.7433 23.1978C21.7433 24.8627 23.1007 26.2166 24.7699 26.2166C26.439 26.2166 27.7964 24.8627 27.7964 23.1978C27.7964 21.5328 26.439 20.1789 24.7699 20.1789ZM15.6902 9.61276C15.6902 8.7803 16.3689 8.10332 17.2035 8.10332C18.0381 8.10332 18.7168 8.7803 18.7168 9.61276C18.7168 10.4452 18.0381 11.1222 17.2035 11.1222C16.3689 11.1222 15.6902 10.4452 15.6902 9.61276ZM9.63714 24.7072C8.80257 24.7072 8.12387 24.0302 8.12387 23.1978C8.12387 22.3653 8.80257 21.6883 9.63714 21.6883C10.4717 21.6883 11.1504 22.3653 11.1504 23.1978C11.1504 24.0302 10.4717 24.7072 9.63714 24.7072ZM17.2035 18.6694C16.3689 18.6694 15.6902 17.9924 15.6902 17.16C15.6902 16.3275 16.3689 15.6505 17.2035 15.6505C18.0381 15.6505 18.7168 16.3275 18.7168 17.16C18.7168 17.9924 18.0381 18.6694 17.2035 18.6694ZM24.7699 24.7072C23.9353 24.7072 23.2566 24.0302 23.2566 23.1978C23.2566 22.3653 23.9353 21.6883 24.7699 21.6883C25.6044 21.6883 26.2831 22.3653 26.2831 23.1978C26.2831 24.0302 25.6044 24.7072 24.7699 24.7072Z" fill="rgb(255,255,255)" fill-rule="nonzero" />
			</g>
		</g>
		<path id="" d="M49.1318 28L49.1318 10.2695L52.3018 10.2695L52.3018 25.3281L59.6553 25.3281L59.6553 28L49.1318 28ZM67.7336 28.3281Q65.8938 28.3281 64.4055 27.4961Q62.9172 26.6641 62.0383 25.0996Q61.1653 23.5352 61.1653 21.3438Q61.1653 19.7148 61.6692 18.4316Q62.1789 17.1426 63.052 16.2285Q63.9309 15.3086 65.0324 14.8281Q66.134 14.3477 67.3 14.3477Q69.1047 14.3477 70.3235 15.1504Q71.5422 15.9473 72.1692 17.377Q72.802 18.8066 72.802 20.6816Q72.802 21.127 72.761 21.5312Q72.7199 21.9355 72.6555 22.2051L64.2297 22.2051Q64.3586 23.377 64.8801 24.1973Q65.4074 25.0117 66.2336 25.4453Q67.0656 25.8789 68.1379 25.8789Q68.9934 25.8789 69.7317 25.6328Q70.4758 25.3867 71.2141 24.918L72.2922 26.8867Q71.343 27.5254 70.1711 27.9297Q69.0051 28.3281 67.7336 28.3281ZM64.1828 20.0605L70.0949 20.0605Q70.0949 18.5371 69.4094 17.6699Q68.7238 16.7969 67.3528 16.7969Q66.591 16.7969 65.9172 17.1719Q65.2492 17.541 64.7863 18.2617Q64.3235 18.9824 64.1828 20.0605ZM81.3333 28.3281Q79.5169 28.3281 78.0637 27.502Q76.6106 26.6699 75.761 25.1055Q74.9173 23.541 74.9173 21.3438Q74.9173 19.123 75.843 17.5645Q76.7747 16.0059 78.2981 15.1797Q79.8274 14.3477 81.5969 14.3477Q82.8626 14.3477 83.8118 14.7754Q84.7669 15.2031 85.4876 15.8535L83.97 17.875Q83.4602 17.418 82.9212 17.1719Q82.388 16.9258 81.7786 16.9258Q80.7063 16.9258 79.8801 17.4766Q79.0598 18.0273 78.5969 19.0176Q78.1399 20.0078 78.1399 21.3438Q78.1399 22.668 78.5969 23.6641Q79.054 24.6543 79.845 25.2051Q80.6419 25.75 81.6614 25.75Q82.4466 25.75 83.138 25.4219Q83.8352 25.0879 84.4094 24.6074L85.6868 26.6992Q84.7493 27.5195 83.6067 27.9238Q82.4641 28.3281 81.3333 28.3281ZM88.5878 28L88.5878 10.2695L92.1562 10.2695L95.2792 18.918Q95.5781 19.75 95.8535 20.6348Q96.1347 21.5137 96.416 22.3867L96.5273 22.3867Q96.8261 21.5137 97.0956 20.6348Q97.3652 19.75 97.6406 18.918L100.705 10.2695L104.297 10.2695L104.297 28L101.379 28L101.379 19.9258Q101.379 19.0996 101.449 18.1035Q101.519 17.1074 101.613 16.0938Q101.707 15.0801 101.801 14.2715L101.684 14.2715L100.248 18.4023L97.3476 26.3477L95.4609 26.3477L92.5371 18.4023L91.1249 14.2715L91.0253 14.2715Q91.1249 15.0801 91.2128 16.0938Q91.3007 17.1074 91.3652 18.1035Q91.4355 19.0996 91.4355 19.9258L91.4355 28L88.5878 28ZM108.532 28L108.532 14.6758L111.679 14.6758L111.679 28L108.532 28ZM110.108 12.3555Q109.259 12.3555 108.743 11.8691Q108.233 11.377 108.233 10.5508Q108.233 9.75391 108.743 9.27344Q109.259 8.78711 110.108 8.78711Q110.935 8.78711 111.462 9.27344Q111.989 9.75391 111.989 10.5508Q111.989 11.377 111.462 11.8691Q110.935 12.3555 110.108 12.3555ZM115.636 28L115.636 14.6758L118.203 14.6758L118.46 16.4863L118.525 16.4863Q119.41 15.5957 120.464 14.9746Q121.525 14.3477 122.89 14.3477Q125.029 14.3477 126.013 15.7363Q126.997 17.125 126.997 19.6562L126.997 28L123.851 28L123.851 20.0488Q123.851 18.4082 123.359 17.7344Q122.867 17.0547 121.783 17.0547Q120.91 17.0547 120.253 17.4707Q119.597 17.8867 118.783 18.6953L118.783 28L115.636 28ZM135.445 28.3281Q133.781 28.3281 132.544 27.502Q131.314 26.6699 130.64 25.1055Q129.972 23.541 129.972 21.3438Q129.972 19.1758 130.775 17.6113Q131.578 16.0469 132.867 15.1973Q134.162 14.3477 135.621 14.3477Q136.757 14.3477 137.548 14.7402Q138.339 15.1328 139.107 15.8184L138.984 13.668L138.984 8.86328L142.13 8.86328L142.13 28L139.564 28L139.312 26.5586L139.236 26.5586Q138.492 27.3027 137.513 27.8184Q136.54 28.3281 135.445 28.3281ZM136.224 25.7207Q137.003 25.7207 137.671 25.3691Q138.339 25.0176 138.984 24.2266L138.984 18.0566Q138.322 17.4414 137.648 17.1953Q136.974 16.9434 136.277 16.9434Q135.457 16.9434 134.759 17.4648Q134.062 17.9805 133.634 18.9531Q133.212 19.9199 133.212 21.3086Q133.212 22.75 133.57 23.7344Q133.927 24.7188 134.601 25.2227Q135.281 25.7207 136.224 25.7207Z" fill="rgb(1,1,1)" fill-rule="nonzero" />
	</g>
</svg>
